<?xml version="1.0" standalone="no"?>
<!DOCTYPE svg PUBLIC "-//W3C//DTD SVG 20010904//EN"
 "http://www.w3.org/TR/2001/REC-SVG-20010904/DTD/svg10.dtd">
<svg version="1.0" xmlns="http://www.w3.org/2000/svg"
 width="600.000000pt" height="600.000000pt" viewBox="0 0 600.000000 600.000000"
 preserveAspectRatio="xMidYMid meet">

<g transform="translate(0.000000,600.000000) scale(0.100000,-0.100000)"
fill="#000000" stroke="none">
<path d="M2695 5984 c-831 -86 -1588 -513 -2091 -1180 -677 -899 -793 -2106
-299 -3119 413 -847 1198 -1449 2125 -1630 1328 -258 2671 412 3265 1630 494
1013 378 2220 -299 3119 -632 837 -1662 1288 -2701 1180z m-1007 -2036 c2
-479 6 -551 29 -492 11 28 145 133 222 173 109 56 185 74 316 74 131 1 206
-17 321 -73 105 -51 179 -124 227 -222 71 -147 70 -133 74 -920 l4 -708 -245
0 -246 0 0 563 c0 620 -7 764 -40 833 -49 100 -153 151 -291 141 -182 -12
-300 -121 -344 -317 -15 -64 -18 -159 -22 -648 l-5 -572 -242 2 -241 3 -3
1325 c-1 729 0 1331 3 1338 3 10 57 12 242 10 l238 -3 3 -507z m1920 -2 l2
-508 63 58 c158 149 300 207 502 207 253 1 453 -108 545 -297 74 -152 75 -162
75 -936 l0 -685 -242 -3 -243 -2 0 517 c-1 604 -9 801 -38 865 -27 61 -62 100
-118 128 -43 22 -62 25 -149 25 -89 0 -107 -3 -162 -29 -65 -30 -137 -97 -167
-155 -10 -18 -27 -67 -38 -109 -21 -73 -22 -104 -26 -659 l-4 -583 -244 0
-244 0 0 1333 c0 734 3 1337 7 1341 4 3 113 5 242 4 l236 -3 3 -509z"/>
</g>
</svg>
